<svg xmlns="http://www.w3.org/2000/svg" viewBox="0 0 960 700">
  <defs>
    <marker id="arrowBlue" markerWidth="10" markerHeight="7" refX="9" refY="3.5" orient="auto">
      <polygon points="0 0, 10 3.5, 0 7" fill="#2563eb"/>
    </marker>
    <marker id="arrowPurple" markerWidth="10" markerHeight="7" refX="9" refY="3.5" orient="auto">
      <polygon points="0 0, 10 3.5, 0 7" fill="#7c3aed"/>
    </marker>
    <marker id="arrowGreen" markerWidth="10" markerHeight="7" refX="9" refY="3.5" orient="auto">
      <polygon points="0 0, 10 3.5, 0 7" fill="#059669"/>
    </marker>
    <marker id="arrowOrange" markerWidth="10" markerHeight="7" refX="9" refY="3.5" orient="auto">
      <polygon points="0 0, 10 3.5, 0 7" fill="#ea580c"/>
    </marker>
  </defs>
  <style>
    text { font-family: -apple-system, BlinkMacSystemFont, "Segoe UI", sans-serif; }
    .title { font-size: 24px; font-weight: 700; fill: #1e293b; }
    .node-label { font-size: 16px; font-weight: 600; fill: #1e293b; }
    .sub-label { font-size: 13px; font-weight: 400; fill: #64748b; }
    .arrow-label { font-size: 12px; font-weight: 400; fill: #475569; }
  </style>
  <rect width="960" height="700" fill="#ffffff"/>
  <text x="480" y="50" text-anchor="middle" class="title">AgentLoop Core Architecture</text>

  <!-- Input Layer -->
  <circle cx="480" cy="120" r="35" fill="#dbeafe" stroke="#2563eb" stroke-width="2.5"/>
  <text x="480" y="118" text-anchor="middle" class="node-label">User</text>
  <text x="480" y="135" text-anchor="middle" class="sub-label">Input</text>

  <!-- Agent Core -->
  <rect x="360" y="200" width="240" height="100" rx="12" fill="#f3e8ff" stroke="#7c3aed" stroke-width="3"/>
  <text x="480" y="235" text-anchor="middle" class="node-label">Agent Loop</text>
  <text x="480" y="255" text-anchor="middle" class="sub-label">Reasoning Engine</text>
  <text x="480" y="275" text-anchor="middle" class="sub-label">Plan → Act → Observe</text>

  <!-- Memory Layer -->
  <rect x="100" y="220" width="180" height="60" rx="8" fill="#dcfce7" stroke="#059669" stroke-width="2.5" stroke-dasharray="5,3"/>
  <text x="190" y="245" text-anchor="middle" class="node-label">Short-term</text>
  <text x="190" y="265" text-anchor="middle" class="sub-label">Context Window</text>

  <ellipse cx="190" cy="400" rx="80" ry="50" fill="#dcfce7" stroke="#059669" stroke-width="2.5"/>
  <text x="190" y="395" text-anchor="middle" class="node-label">Long-term</text>
  <text x="190" y="415" text-anchor="middle" class="sub-label">Vector Store</text>

  <!-- Tool Layer -->
  <rect x="680" y="220" width="160" height="60" rx="8" fill="#fed7aa" stroke="#ea580c" stroke-width="2.5"/>
  <text x="760" y="245" text-anchor="middle" class="node-label">Tools</text>
  <text x="760" y="265" text-anchor="middle" class="sub-label">Functions</text>

  <!-- Output Layer -->
  <rect x="390" y="500" width="180" height="70" rx="8" fill="#dbeafe" stroke="#2563eb" stroke-width="2.5"/>
  <text x="480" y="525" text-anchor="middle" class="node-label">Response</text>
  <text x="480" y="545" text-anchor="middle" class="sub-label">Action / Output</text>

  <!-- Arrows -->
  <line x1="480" y1="155" x2="480" y2="200" stroke="#2563eb" stroke-width="2" marker-end="url(#arrowBlue)"/>
  <rect x="455" y="168" width="50" height="18" fill="#ffffff" opacity="0.95"/>
  <text x="480" y="180" text-anchor="middle" class="arrow-label">query</text>

  <path d="M 360,250 L 280,250" stroke="#059669" stroke-width="2" marker-end="url(#arrowGreen)"/>
  <rect x="295" y="237" width="50" height="18" fill="#ffffff" opacity="0.95"/>
  <text x="320" y="249" text-anchor="middle" class="arrow-label">read</text>

  <path d="M 280,250 L 360,250" stroke="#059669" stroke-width="2" stroke-dasharray="5,3" marker-end="url(#arrowGreen)"/>
  <rect x="297" y="257" width="50" height="18" fill="#ffffff" opacity="0.95"/>
  <text x="320" y="269" text-anchor="middle" class="arrow-label">write</text>

  <path d="M 600,250 L 680,250" stroke="#ea580c" stroke-width="2" marker-end="url(#arrowOrange)"/>
  <rect x="615" y="237" width="50" height="18" fill="#ffffff" opacity="0.95"/>
  <text x="640" y="249" text-anchor="middle" class="arrow-label">call</text>

  <path d="M 680,250 L 600,250" stroke="#ea580c" stroke-width="2" marker-end="url(#arrowOrange)"/>
  <rect x="615" y="257" width="55" height="18" fill="#ffffff" opacity="0.95"/>
  <text x="642" y="269" text-anchor="middle" class="arrow-label">result</text>

  <line x1="480" y1="300" x2="480" y2="500" stroke="#2563eb" stroke-width="2" marker-end="url(#arrowBlue)"/>
  <rect x="445" y="390" width="70" height="18" fill="#ffffff" opacity="0.95"/>
  <text x="480" y="402" text-anchor="middle" class="arrow-label">generate</text>

  <path d="M 240,380 Q 240,320 360,280" stroke="#059669" stroke-width="1.5" marker-end="url(#arrowGreen)"/>
  <rect x="265" y="317" width="60" height="18" fill="#ffffff" opacity="0.95"/>
  <text x="295" y="329" text-anchor="middle" class="arrow-label">retrieve</text>

  <path d="M 420,300 Q 420,450 390,520" stroke="#7c3aed" stroke-width="2" marker-end="url(#arrowPurple)"/>
  <rect x="365" y="400" width="60" height="18" fill="#ffffff" opacity="0.95"/>
  <text x="395" y="412" text-anchor="middle" class="arrow-label">feedback</text>

  <!-- Legend -->
  <line x1="750" y1="90" x2="780" y2="90" stroke="#2563eb" stroke-width="2" marker-end="url(#arrowBlue)"/>
  <text x="790" y="95" class="arrow-label">Data Flow</text>

  <line x1="750" y1="115" x2="780" y2="115" stroke="#059669" stroke-width="2" marker-end="url(#arrowGreen)"/>
  <text x="790" y="120" class="arrow-label">Memory</text>

  <line x1="750" y1="140" x2="780" y2="140" stroke="#ea580c" stroke-width="2" marker-end="url(#arrowOrange)"/>
  <text x="790" y="145" class="arrow-label">Tool Call</text>

  <line x1="750" y1="165" x2="780" y2="165" stroke="#7c3aed" stroke-width="2" marker-end="url(#arrowPurple)"/>
  <text x="790" y="170" class="arrow-label">Feedback Loop</text>
</svg>
