<?xml version="1.0" encoding="UTF-8"?>
<svg width="1024px" height="1024px" viewBox="0 0 1024 1024" version="1.1" xmlns="http://www.w3.org/2000/svg" xmlns:xlink="http://www.w3.org/1999/xlink">
    <title>1 - Layer</title>
    <g id="Template---App-Icons" stroke="none" stroke-width="1" fill="none" fill-rule="evenodd">
        <g id="1---Layer" fill="color(display-p3 1.000 1.000 1.000)" fill-rule="nonzero">
            <path d="M386.017441,668.575345 C390.701377,679.871897 397.865044,682.076102 403.651083,682.076102 C413.018955,682.076102 421.560251,675.463487 421.560251,664.166935 C421.560251,661.962729 421.284725,658.656421 419.356045,654.248011 L349.648054,498.576015 C343.035438,483.973155 334.494143,482.044476 327.881527,482.044476 C321.268912,482.044476 313.003142,483.973155 306.390526,498.576015 L236.131484,654.799062 C234.202804,659.207473 233.651753,662.238255 233.651753,664.993512 C233.651753,675.739012 241.641997,682.076102 251.009869,682.076102 C256.795908,682.076102 263.959575,679.871897 268.367985,668.850871 L282.419794,634.961215 L371.965632,634.961215 L386.017441,668.575345 Z M327.606002,526.955158 L359.842504,605.204444 L294.818449,605.204444 L327.606002,526.955158 Z" id="形状"></path>
        </g>
    </g>
</svg>