<?xml version="1.0" encoding="UTF-8"?>
<svg width="1024px" height="1024px" viewBox="0 0 1024 1024" version="1.1" xmlns="http://www.w3.org/2000/svg" xmlns:xlink="http://www.w3.org/1999/xlink">
    <title>2 - Layer</title>
    <g id="Template---App-Icons" stroke="none" stroke-width="1" fill="none" fill-rule="evenodd">
        <g id="2---Layer" fill="color(display-p3 0.000 0.000 0.000)" fill-rule="nonzero">
            <path d="M861.950814,210.848818 C885.315486,210.903995 895.221582,213.178312 903.98896,217.427944 L904.628622,217.742414 C905.266609,218.060403 905.900109,218.388935 906.533947,218.727916 C916.147154,223.869115 923.691656,231.413617 928.832856,241.026825 C929.171836,241.660663 929.500368,242.294162 929.818357,242.932149 L930.132827,243.571811 C934.434284,252.446108 936.711953,262.487067 936.711953,286.470789 L936.711953,460.36539 C936.660164,482.280306 934.656151,492.355014 930.90101,500.755418 L930.596867,501.424071 L930.132827,502.403536 L929.818357,503.043198 C929.500368,503.681186 929.171836,504.314685 928.832856,504.948523 C923.691656,514.561731 916.147154,522.106232 906.533947,527.247432 L905.900043,527.582926 C896.810581,532.341654 887.460142,534.947356 863.636584,535.117615 L861.950814,535.125538 L837.173305,535.125474 L837.17307,618.562295 C837.17307,629.422079 828.369476,638.225674 817.509691,638.225674 L816.990482,638.218826 C811.979061,638.086593 807.199413,636.04399 803.637252,632.498002 L705.82193,535.125474 L531.031187,535.125538 C505.956905,535.067387 496.382803,532.452322 487.081959,527.582926 L486.448055,527.247432 C476.834847,522.106232 469.290345,514.561731 464.149146,504.948523 C463.810165,504.314685 463.481633,503.681186 463.163645,503.043198 L462.849174,502.403536 C458.547717,493.529239 456.270048,483.488281 456.270048,459.504558 L456.270048,285.598752 C456.323968,263.086591 458.438668,253.071567 462.396059,244.527675 L462.849174,243.571811 L463.163645,242.932149 C463.481633,242.294162 463.810165,241.660663 464.149146,241.026825 C469.290345,231.413617 476.834847,223.869115 486.448055,218.727916 C487.081893,218.388935 487.715392,218.060403 488.353379,217.742414 L489.310498,217.275181 C498.108385,213.07258 508.193817,210.848818 531.89202,210.848818 L861.950814,210.848818 Z M861.950814,238.377549 L531.11767,238.377549 C513.722544,238.41071 506.687773,239.547633 501.41135,242.004484 L501.238886,242.084752 L500.56902,242.412475 L500.24864,242.574764 C500.117848,242.641659 499.98447,242.710702 499.84822,242.782043 L499.430573,243.003114 C494.614755,245.578642 490.999872,249.193525 488.424344,254.009343 C488.196072,254.436174 487.989858,254.834599 487.801597,255.21231 L487.630517,255.55941 L487.344742,256.163731 L487.269071,256.330307 C484.948769,261.477938 483.832334,268.643611 483.79948,285.68916 L483.79948,460.275402 C483.832195,478.105084 485.01195,485.013011 487.621265,490.396266 L487.801597,490.763037 C487.927104,491.014845 488.060591,491.275858 488.203273,491.548357 L488.424344,491.966005 C490.999872,496.781822 494.614755,500.396706 499.325349,502.916252 L499.850391,503.194441 C505.88349,506.353031 512.206829,507.553077 531.031177,507.596807 L705.82192,507.596743 L710.655098,507.596741 C714.83915,507.59674 718.85288,509.253949 721.818156,512.205801 L725.243473,515.615613 L725.243473,515.615613 L809.643263,599.634468 L809.644573,535.125397 L809.644618,520.254973 C809.644638,513.263987 815.311966,507.59669 822.302951,507.596708 L837.173376,507.596743 L837.173376,507.596743 L861.821425,507.597111 L863.439851,507.589587 C881.20479,507.462627 887.24625,506.275684 893.022749,503.251746 L893.551428,502.972234 C898.367246,500.396706 901.98213,496.781822 904.557657,491.966005 C904.785929,491.539173 904.992144,491.140749 905.180405,490.763037 L905.35935,490.395219 L905.643814,489.793519 L905.720053,489.629299 C907.998918,484.565885 909.108615,477.569384 909.183222,461.142344 L909.183222,460.36539 L909.183222,286.470789 C909.183222,268.327139 908.040218,261.239488 905.47169,255.810754 L905.38819,255.636753 L905.180405,255.21231 C905.054897,254.960503 904.921411,254.699489 904.778729,254.42699 L904.557657,254.009343 C901.98213,249.193525 898.367246,245.578642 893.551428,243.003114 C893.124597,242.774842 892.726173,242.568627 892.348461,242.380367 L891.905666,242.162094 L891.743128,242.085816 C886.472309,239.593493 879.675358,238.453238 862.728162,238.377549 L861.950814,238.377549 Z" id="路径"></path>
        </g>
    </g>
</svg>