<?xml version="1.0" encoding="UTF-8"?>
<svg width="1024px" height="1024px" viewBox="0 0 1024 1024" version="1.1" xmlns="http://www.w3.org/2000/svg" xmlns:xlink="http://www.w3.org/1999/xlink">
    <title>4 - Layer</title>
    <g id="Template---App-Icons" stroke="none" stroke-width="1" fill="none" fill-rule="evenodd">
        <g id="4---Layer" fill="color(display-p3 0.000 0.000 0.000)" fill-rule="nonzero">
            <path d="M709.066662,286.507999 L711.916669,313.164255 L780.427184,313.165049 C788.550303,313.165049 795.230915,318.726619 795.230915,326.849738 C795.230915,334.972857 788.550303,341.747573 780.427184,341.747573 L760.059121,341.747329 C754.573064,365.185875 742.658938,388.671322 725.005903,408.880004 C723.799463,410.261101 722.569347,411.624073 721.315679,412.968597 C739.306931,426.224212 760.483262,436.330107 784.334738,442.405483 C792.600095,444.51081 797.593787,452.91791 795.48846,461.183267 C793.383133,469.448625 784.976033,474.442316 776.710675,472.336989 C746.672652,464.685794 720.099052,451.447078 697.852545,433.917909 C677.831388,448.792592 653.821262,460.130382 626.109192,467.189116 C617.843835,469.294443 609.436735,464.300752 607.331408,456.035395 C605.226081,447.770038 610.219772,439.362937 618.485129,437.25761 C640.127072,431.74504 658.889222,423.327687 674.724314,412.486117 L674.136362,411.843543 C654.528956,390.303079 640.891076,365.388076 635.01911,341.74788 L616.38835,341.747573 C608.265231,341.747573 601.685669,334.972857 601.685669,326.849738 C601.685669,318.726619 608.265231,313.165049 616.38835,313.165049 L682.897669,313.164255 L679.833427,291.531706 C678.446169,283.116004 683.549842,275.024594 691.883495,274.019417 C700.217149,273.014241 707.679404,278.092297 709.066662,286.507999 Z M667.1579,341.747876 C672.613825,358.137448 682.857831,375.539925 696.977779,391.051932 C697.395422,391.51075 697.815839,391.967383 698.239015,392.421809 C699.434569,391.154213 700.602609,389.866565 701.744034,388.559895 C714.252181,374.240932 723.150097,357.988022 728.090935,341.748113 Z" id="形状结合"></path>
        </g>
    </g>
</svg>