<?xml version="1.0" encoding="UTF-8"?>
<svg width="1024px" height="1024px" viewBox="0 0 1024 1024" version="1.1" xmlns="http://www.w3.org/2000/svg" xmlns:xlink="http://www.w3.org/1999/xlink">
    <title>3 - Layer</title>
    <g id="Template---App-Icons" stroke="none" stroke-width="1" fill="none" fill-rule="evenodd">
        <g id="3---Layer" fill="color(display-p3 0.000 0.000 0.000)">
            <path d="M534.672454,427.995302 L535.628318,428.448417 L536.26798,428.762887 C536.905967,429.080876 537.539466,429.409408 538.173304,429.748388 C547.786512,434.889588 555.331014,442.43409 560.472214,452.047298 C560.811194,452.681135 561.139726,453.314635 561.457715,453.952622 L561.772185,454.592284 L562.2253,455.548148 C566.191676,464.111437 568.306983,474.152545 568.350622,496.772746 L568.351311,670.525031 C568.351311,694.508754 566.073642,704.549712 561.772185,713.424009 L561.457715,714.063671 C561.139726,714.701658 560.811194,715.335158 560.472214,715.968996 C555.331014,725.582203 547.786512,733.126705 538.173304,738.267905 L537.539401,738.603399 C528.238556,743.472795 518.664454,746.08786 493.590172,746.146011 L318.799429,746.145947 L220.984107,843.518475 C217.421946,847.064463 212.642298,849.107065 207.630877,849.239299 L207.111668,849.246147 C196.251884,849.246147 187.448289,840.442552 187.448289,829.582767 L187.448055,746.145947 L162.670545,746.146011 L160.984775,746.138088 C141.211222,745.996773 131.408201,744.177682 123.449393,740.842295 L122.877156,740.598544 C121.454027,739.982574 120.084736,739.317208 118.721316,738.603399 L118.087413,738.267905 C108.474205,733.126705 100.929703,725.582203 95.7885034,715.968996 C95.4495232,715.335158 95.1209909,714.701658 94.8030023,714.063671 L94.4885319,713.424009 L94.0244919,712.444544 C90.0734773,703.904385 87.9625763,693.885177 87.9094058,671.385863 L87.9094058,497.491262 C87.9094058,473.507539 90.187075,463.466581 94.4885319,454.592284 L94.8030023,453.952622 C95.1209909,453.314635 95.4495232,452.681135 95.7885034,452.047298 C100.929703,442.43409 108.474205,434.889588 118.087413,429.748388 C118.72125,429.409408 119.35475,429.080876 119.992737,428.762887 L120.632399,428.448417 L121.611864,427.984377 C130.152023,424.033362 140.171231,421.922461 162.670545,421.869291 L492.72934,421.869291 C515.856501,421.869291 526.019025,423.987174 534.672454,427.995302 Z M328.093218,482.045143 L327.881527,482.044476 C321.268912,482.044476 313.003142,483.973155 306.390526,498.576015 L236.131484,654.799062 C234.202804,659.207473 233.651753,662.238255 233.651753,664.993512 C233.651753,675.739012 241.641997,682.076102 251.009869,682.076102 C256.795908,682.076102 263.959575,679.871897 268.367985,668.850871 L282.419794,634.961215 L371.965632,634.961215 L386.017441,668.575345 C390.701377,679.871897 397.865044,682.076102 403.651083,682.076102 C413.018955,682.076102 421.560251,675.463487 421.560251,664.166935 C421.560251,661.962729 421.284725,658.656421 419.356045,654.248011 L349.648054,498.576015 C343.105785,484.128505 334.675655,482.086946 328.093218,482.045143 Z M327.606002,526.955158 L359.842504,605.204444 L294.818449,605.204444 L327.606002,526.955158 Z" id="形状结合"></path>
        </g>
    </g>
</svg>