<svg xmlns="http://www.w3.org/2000/svg" viewBox="0 0 960 600" width="960" height="600">
  <style>
    text {
      font-family: "Helvetica Neue", Helvetica, Arial, "PingFang SC", "Microsoft YaHei", sans-serif;
      fill: #111827;
    }
    .title { font-size: 22px; font-weight: 600; }
    .node-title { font-size: 15px; font-weight: 600; }
    .node-text { font-size: 12px; fill: #6b7280; }
  </style>
  <defs>
    <marker id="arrow-blue" markerWidth="10" markerHeight="7" refX="9" refY="3.5" orient="auto">
      <polygon points="0 0, 10 3.5, 0 7" fill="#2563eb"/>
    </marker>
    <marker id="arrow-green" markerWidth="10" markerHeight="7" refX="9" refY="3.5" orient="auto">
      <polygon points="0 0, 10 3.5, 0 7" fill="#16a34a"/>
    </marker>
  </defs>

  <rect width="960" height="600" fill="#ffffff"/>
  <text x="40" y="52" class="title">AppleDictionary 高度测量架构</text>
  <text x="40" y="78" class="node-text">系统词典 HTML 由模板承载，模板只回传一次合并高度，native 侧负责幂等更新。</text>

  <rect x="40" y="120" width="210" height="92" rx="8" fill="#eff6ff" stroke="#bfdbfe" stroke-width="1.5"/>
  <text x="62" y="150" class="node-title">AppleDictionary.swift</text>
  <text x="62" y="174" class="node-text">查询活动系统词典</text>
  <text x="62" y="194" class="node-text">生成 iframe srcdoc</text>

  <rect x="300" y="120" width="220" height="92" rx="8" fill="#ffffff" stroke="#d1d5db" stroke-width="1.5"/>
  <text x="322" y="150" class="node-title">all_dict.html</text>
  <text x="322" y="174" class="node-text">写入 Dict HTML 目录</text>
  <text x="322" y="194" class="node-text">保留词典资源路径</text>

  <rect x="570" y="120" width="220" height="92" rx="8" fill="#f0fdfa" stroke="#99f6e4" stroke-width="1.5"/>
  <text x="592" y="150" class="node-title">WKWebView</text>
  <text x="592" y="174" class="node-text">loadFileURL 加载模板</text>
  <text x="592" y="194" class="node-text">didFinish 后触发重测</text>

  <rect x="570" y="300" width="220" height="100" rx="8" fill="#f0fdf4" stroke="#bbf7d0" stroke-width="1.5"/>
  <text x="592" y="330" class="node-title">apple-dictionary.html</text>
  <text x="592" y="354" class="node-text">统一调整 iframe 样式</text>
  <text x="592" y="374" class="node-text">只发送一次 scrollHeight</text>

  <rect x="300" y="300" width="220" height="100" rx="8" fill="#fff7ed" stroke="#fed7aa" stroke-width="1.5"/>
  <text x="322" y="330" class="node-title">EZWebViewManager</text>
  <text x="322" y="354" class="node-text">消费 needUpdate 标记</text>
  <text x="322" y="374" class="node-text">过滤 0.5pt 内重复高度</text>

  <rect x="40" y="300" width="210" height="100" rx="8" fill="#faf5ff" stroke="#e9d5ff" stroke-width="1.5"/>
  <text x="62" y="330" class="node-title">EZWordResultView</text>
  <text x="62" y="354" class="node-text">更新 WebView 约束</text>
  <text x="62" y="374" class="node-text">只传递真实高度变化</text>

  <rect x="40" y="460" width="210" height="82" rx="8" fill="#ffffff" stroke="#d1d5db" stroke-width="1.5"/>
  <text x="62" y="490" class="node-title">Table / Window</text>
  <text x="62" y="514" class="node-text">更新 row height</text>
  <text x="62" y="532" class="node-text">稳定窗口高度</text>

  <line x1="250" y1="166" x2="300" y2="166" stroke="#2563eb" stroke-width="1.8" marker-end="url(#arrow-blue)"/>
  <line x1="520" y1="166" x2="570" y2="166" stroke="#2563eb" stroke-width="1.8" marker-end="url(#arrow-blue)"/>
  <line x1="680" y1="212" x2="680" y2="300" stroke="#2563eb" stroke-width="1.8" marker-end="url(#arrow-blue)"/>
  <line x1="570" y1="350" x2="520" y2="350" stroke="#16a34a" stroke-width="1.8" marker-end="url(#arrow-green)"/>
  <line x1="300" y1="350" x2="250" y2="350" stroke="#16a34a" stroke-width="1.8" marker-end="url(#arrow-green)"/>
  <line x1="145" y1="400" x2="145" y2="460" stroke="#16a34a" stroke-width="1.8" marker-end="url(#arrow-green)"/>

  <g transform="translate(40 565)">
    <line x1="0" y1="0" x2="30" y2="0" stroke="#2563eb" stroke-width="1.8" marker-end="url(#arrow-blue)"/>
    <text x="42" y="4" class="node-text">HTML 加载路径</text>
    <line x1="150" y1="0" x2="180" y2="0" stroke="#16a34a" stroke-width="1.8" marker-end="url(#arrow-green)"/>
    <text x="192" y="4" class="node-text">高度回调路径</text>
  </g>
</svg>
